# Alias OBJ Model File
# Exported from SketchUp, (c) 2000-2012 Trimble Navigation Limited
# File units = millimeters

mtllib a2f6fb97-fa9f-44c0-b70f-01fac627f021.mtl

g Mesh1 Group1 Model

usemtl FrontColor
v 2.87422 0 -3.64676
vt -0.127575 0
vn -0.965926 0 0.258819
v 2.91 0 -3.375
vt -0.116783 0
vn -1 0 4.61919e-16
v 2.91 1.62 -3.375
vt -0.116783 0.0637795
v 2.87422 1.62 -3.64676
vt -0.127575 0.0637795
f 1/1/1 2/2/2 3/3/2 4/4/1 

vt -0.113158 0.143573
vn 0 -1 -0
v 20 0 -6.75
vt -0.787402 0.265748
vt -0.114567 0.132874
f 1/5/3 5/6/3 2/7/3

v 2.76933 0 -3.9
vt -0.109029 0.153543
f 6/8/3 5/6/3 1/5/3

v 2.60246 0 -4.11746
vt -0.102459 0.162105
f 7/9/3 5/6/3 6/8/3

v 2.385 0 -4.28433
vt -0.0938976 0.168674
f 8/10/3 5/6/3 7/9/3

v 2.13176 0 -4.38922
vt -0.0839276 0.172804
f 9/11/3 5/6/3 8/10/3

v 1.86 0 -4.425
vt -0.0732283 0.174213
f 10/12/3 5/6/3 9/11/3

v 0 0 -6.75
vt 0 0.265748
f 10/12/3 11/13/3 5/6/3

v 1.58824 0 -4.38922
vt -0.0625291 0.172804
f 12/14/3 11/13/3 10/12/3

v 1.335 0 -4.28433
vt -0.0525591 0.168674
f 13/15/3 11/13/3 12/14/3

v 1.11754 0 -4.11746
vt -0.0439976 0.162105
f 14/16/3 11/13/3 13/15/3

v 0.950673 0 -3.9
vt -0.0374281 0.153543
f 15/17/3 11/13/3 14/16/3

v 0.845778 0 -3.64676
vt -0.0332983 0.143573
f 16/18/3 11/13/3 15/17/3

v 0 0 -0
vt 0 0
f 11/13/3 16/18/3 17/19/3

v 0.81 0 -3.375
vt -0.0318898 0.132874
f 17/19/3 16/18/3 18/20/3

vt 0.1359 0
vn 1 0 -2.37958e-16
vt 0.146691 0
vn 0.965926 0 0.258819
v 0.845778 1.62 -3.64676
vt 0.146691 0.0637795
v 0.81 1.62 -3.375
vt 0.1359 0.0637795
f 18/21/4 16/22/5 19/23/5 20/24/4 

vt 0.145387 0
vt 0.156179 0
vn 0.866025 0 0.5
v 0.950673 1.62 -3.9
vt 0.156179 0.0637795
vt 0.145387 0.0637795
f 16/25/5 15/26/6 21/27/6 19/28/5 

vt 0.144599 0
vt 0.15539 0
vn 0.707107 0 0.707107
v 1.11754 1.62 -4.11746
vt 0.15539 0.0637795
vt 0.144599 0.0637795
f 15/29/6 14/30/7 22/31/7 21/32/6 

vt 0.133589 0
vt 0.14438 0
vn 0.5 0 0.866025
v 1.335 1.62 -4.28433
vt 0.14438 0.0637795
vt 0.133589 0.0637795
f 14/33/7 13/34/8 23/35/8 22/36/7 

vt 0.113107 0
vt 0.123899 0
vn 0.258819 0 0.965926
v 1.58824 1.62 -4.38922
vt 0.123899 0.0637795
vt 0.113107 0.0637795
f 13/37/8 12/38/9 24/39/9 23/40/8 

vt 0.0845496 0
vt 0.0953412 0
vn 1.18979e-15 0 1
v 1.86 1.62 -4.425
vt 0.0953412 0.0637795
vt 0.0845496 0.0637795
f 12/41/9 10/42/10 25/43/10 24/44/9 

vt 0.0498626 0
vt 0.0606541 0
vn -0.258819 0 0.965926
v 2.13176 1.62 -4.38922
vt 0.0606541 0.0637795
vt 0.0498626 0.0637795
f 10/45/10 9/46/11 26/47/11 25/48/10 

vt 0.0114097 0
vt 0.0222013 0
vn -0.5 0 0.866025
v 2.385 1.62 -4.28433
vt 0.0222013 0.0637795
vt 0.0114097 0.0637795
f 9/49/11 8/50/12 27/51/12 26/52/11 

vt -0.0281884 0
vt -0.0173969 0
vn -0.707107 0 0.707107
v 2.60246 1.62 -4.11746
vt -0.0173969 0.0637795
vt -0.0281884 0.0637795
f 8/53/12 7/54/13 28/55/13 27/56/12 

vt -0.0662332 0
vt -0.0554417 0
vn -0.866025 0 0.5
v 2.76933 1.62 -3.9
vt -0.0554417 0.0637795
vt -0.0662332 0.0637795
f 7/57/13 6/58/14 29/59/14 28/60/13 

vt -0.100132 0
vt -0.0893405 0
vt -0.0893405 0.0637795
vt -0.100132 0.0637795
f 6/61/14 1/62/1 4/63/1 29/64/14 

v 20 1.62 -6.75
vt 0.787402 0.265748
vn 0 1 -0
vt 0.109029 0.153543
vt 0.113158 0.143573
f 30/65/15 29/66/15 4/67/15

vt 0.102459 0.162105
f 30/65/15 28/68/15 29/66/15

vt 0.0938976 0.168674
f 30/65/15 27/69/15 28/68/15

vt 0.0839276 0.172804
f 30/65/15 26/70/15 27/69/15

vt 0.0732283 0.174213
f 30/65/15 25/71/15 26/70/15

v 0 1.62 -6.75
f 31/13/15 25/71/15 30/65/15

vt 0.0625291 0.172804
f 25/71/15 31/13/15 24/72/15

vt 0.0525591 0.168674
f 24/72/15 31/13/15 23/73/15

vt 0.0439976 0.162105
f 23/73/15 31/13/15 22/74/15

vt 0.0374281 0.153543
f 22/74/15 31/13/15 21/75/15

vt 0.0332983 0.143573
f 21/75/15 31/13/15 19/76/15

vt 0.0318898 0.132874
f 19/76/15 31/13/15 20/77/15

v 0.845778 1.62 -3.10324
vt 0.0332983 0.122175
f 31/13/15 32/78/15 20/77/15

v 0 1.62 -0
f 33/19/15 32/78/15 31/13/15

v 0.950673 1.62 -2.85
vt 0.0374281 0.112205
f 32/78/15 33/19/15 34/79/15

v 1.11754 1.62 -2.63254
vt 0.0439976 0.103643
f 34/79/15 33/19/15 35/80/15

v 1.335 1.62 -2.46567
vt 0.0525591 0.0970738
f 35/80/15 33/19/15 36/81/15

v 1.58824 1.62 -2.36078
vt 0.0625291 0.092944
f 36/81/15 33/19/15 37/82/15

v 1.86 1.62 -2.325
vt 0.0732283 0.0915354
f 37/82/15 33/19/15 38/83/15

v 20 1.62 -0
vt 0.787402 0
f 38/83/15 33/19/15 39/84/15

vn 0 0 1
v 20 0 -0
vt 0.787402 0.0637795
vt 0 0.0637795
f 17/19/16 40/84/16 39/85/16 33/86/16 

v 1.86 0 -2.325
vt -0.0732283 0.0915354
vt -0.787402 0
f 17/19/3 41/87/3 40/88/3

v 1.58824 0 -2.36078
vt -0.0625291 0.092944
f 41/87/3 17/19/3 42/89/3

v 1.335 0 -2.46567
vt -0.0525591 0.0970738
f 42/89/3 17/19/3 43/90/3

v 1.11754 0 -2.63254
vt -0.0439976 0.103643
f 43/90/3 17/19/3 44/91/3

v 0.950673 0 -2.85
vt -0.0374281 0.112205
f 44/91/3 17/19/3 45/92/3

v 0.845778 0 -3.10324
vt -0.0332983 0.122175
f 45/92/3 17/19/3 46/93/3

f 46/93/3 17/19/3 18/20/3

vt 0.116783 0
vn 0.965926 0 -0.258819
vt 0.127575 0
vt 0.127575 0.0637795
vt 0.116783 0.0637795
f 46/94/17 18/95/4 20/96/4 32/97/17 

vt 0.0893405 0
vn 0.866025 0 -0.5
vt 0.100132 0
vt 0.100132 0.0637795
vt 0.0893405 0.0637795
f 45/98/18 46/99/17 32/100/17 34/101/18 

vt 0.0554417 0
vn 0.707107 0 -0.707107
vt 0.0662332 0
vt 0.0662332 0.0637795
vt 0.0554417 0.0637795
f 44/102/19 45/103/18 34/104/18 35/105/19 

vt 0.0173969 0
vn 0.5 0 -0.866025
vt 0.0281884 0
vt 0.0281884 0.0637795
vt 0.0173969 0.0637795
f 43/106/20 44/107/19 35/108/19 36/109/20 

vt -0.0222013 0
vn 0.258819 0 -0.965926
vt -0.0114097 0
vt -0.0114097 0.0637795
vt -0.0222013 0.0637795
f 42/110/21 43/111/20 36/112/20 37/113/21 

vt -0.0606541 0
vn 9.79828e-17 0 -1
vt -0.0498626 0
vt -0.0498626 0.0637795
vt -0.0606541 0.0637795
f 41/114/22 42/115/21 37/116/21 38/117/22 

v 2.13176 0 -2.36078
vt -0.0953412 0
vn -0.258819 0 -0.965926
vt -0.0845496 0
vt -0.0845496 0.0637795
v 2.13176 1.62 -2.36078
vt -0.0953412 0.0637795
f 47/118/23 41/119/22 38/120/22 48/121/23 

vt -0.0839276 0.092944
f 40/88/3 41/87/3 47/122/3

v 2.385 0 -2.46567
vt -0.0938976 0.0970738
f 40/88/3 47/122/3 49/123/3

vt -0.123899 0
vn -0.5 0 -0.866025
vt -0.113107 0
vt -0.113107 0.0637795
v 2.385 1.62 -2.46567
vt -0.123899 0.0637795
f 49/124/24 47/125/23 48/126/23 50/127/24 

vt 0.0839276 0.092944
vt 0.0938976 0.0970738
f 48/128/15 39/84/15 50/129/15

f 38/83/15 39/84/15 48/128/15

v 2.60246 1.62 -2.63254
vt 0.102459 0.103643
f 50/129/15 39/84/15 51/130/15

v 2.76933 1.62 -2.85
vt 0.109029 0.112205
f 51/130/15 39/84/15 52/131/15

v 2.87422 1.62 -3.10324
vt 0.113158 0.122175
f 52/131/15 39/84/15 53/132/15

vt 0.114567 0.132874
f 53/132/15 39/84/15 3/133/15

v 17.2725 1.62 -2.57286
vt 0.680018 0.101294
f 3/133/15 39/84/15 54/134/15

v 17.5032 1.62 -2.42483
vt 0.689101 0.0954657
f 54/134/15 39/84/15 55/135/15

v 17.7643 1.62 -2.34155
vt 0.699382 0.0921871
f 55/135/15 39/84/15 56/136/15

v 18.0381 1.62 -2.3287
vt 0.710162 0.0916812
f 56/136/15 39/84/15 57/137/15

v 18.3059 1.62 -2.38716
vt 0.720705 0.0939826
f 57/137/15 39/84/15 58/138/15

v 18.5494 1.62 -2.51293
vt 0.730293 0.0989344
f 58/138/15 39/84/15 59/139/15

v 18.7521 1.62 -2.69746
vt 0.738273 0.106199
f 59/139/15 39/84/15 60/140/15

v 18.9002 1.62 -2.92815
vt 0.744101 0.115282
f 60/140/15 39/84/15 61/141/15

v 18.9834 1.62 -3.1893
vt 0.74738 0.125563
f 61/141/15 39/84/15 62/142/15

v 19 1.62 -3.375
vt 0.748031 0.132874
f 62/142/15 39/84/15 63/143/15

f 30/65/15 63/143/15 39/84/15

v 18.9963 1.62 -3.46311
vt 0.747886 0.136343
f 30/65/15 64/144/15 63/143/15

v 18.9378 1.62 -3.7309
vt 0.745584 0.146886
f 30/65/15 65/145/15 64/144/15

v 18.8121 1.62 -3.97445
vt 0.740633 0.156474
f 30/65/15 66/146/15 65/145/15

v 18.6275 1.62 -4.17714
vt 0.733368 0.164454
f 30/65/15 67/147/15 66/146/15

v 18.3968 1.62 -4.32517
vt 0.724285 0.170282
f 30/65/15 68/148/15 67/147/15

v 18.1357 1.62 -4.40845
vt 0.714004 0.173561
f 30/65/15 69/149/15 68/148/15

v 17.8619 1.62 -4.4213
vt 0.703224 0.174067
f 30/65/15 70/150/15 69/149/15

v 17.5941 1.62 -4.36284
vt 0.692681 0.171765
f 30/65/15 71/151/15 70/150/15

v 17.3506 1.62 -4.23707
vt 0.683093 0.166814
f 30/65/15 72/152/15 71/151/15

v 17.1479 1.62 -4.05254
vt 0.675112 0.159549
f 30/65/15 73/153/15 72/152/15

f 30/65/15 3/133/15 73/153/15

f 30/65/15 4/67/15 3/133/15

v 16.9998 1.62 -3.82185
vt 0.669285 0.150466
f 73/153/15 3/133/15 74/154/15

v 16.9166 1.62 -3.5607
vt 0.666006 0.140185
f 74/154/15 3/133/15 75/155/15

v 16.9037 1.62 -3.28689
vt 0.6655 0.129405
f 75/155/15 3/133/15 76/156/15

v 16.9622 1.62 -3.0191
vt 0.667801 0.118862
f 3/133/15 77/157/15 76/156/15

v 17.0879 1.62 -2.77555
vt 0.672753 0.109274
f 3/133/15 78/158/15 77/157/15

f 3/133/15 54/134/15 78/158/15

v 17.2725 0 -2.57286
vt -0.382874 0
vn 0.64528 0 -0.763946
v 17.0879 0 -2.77555
vt -0.372082 0
vn 0.821016 0 -0.570905
vt -0.372082 0.0637795
vt -0.382874 0.0637795
f 79/159/25 80/160/26 78/161/26 54/162/25 

vt -0.680018 0.101294
vt -0.672753 0.109274
f 79/163/3 2/7/3 80/164/3

f 40/88/3 2/7/3 79/163/3

v 2.87422 0 -3.10324
vt -0.113158 0.122175
f 40/88/3 81/165/3 2/7/3

v 2.76933 0 -2.85
vt -0.109029 0.112205
f 40/88/3 82/166/3 81/165/3

v 2.60246 0 -2.63254
vt -0.102459 0.103643
f 40/88/3 83/167/3 82/166/3

f 40/88/3 49/123/3 83/167/3

vt -0.14438 0
vn -0.707107 0 -0.707107
vt -0.133589 0
vt -0.133589 0.0637795
vt -0.14438 0.0637795
f 83/168/27 49/169/24 50/170/24 51/171/27 

vt -0.15539 0
vn -0.866025 0 -0.5
vt -0.144599 0
vt -0.144599 0.0637795
vt -0.15539 0.0637795
f 82/172/28 83/173/27 51/174/27 52/175/28 

vt -0.156179 0
vn -0.965926 0 -0.258819
vt -0.145387 0
vt -0.145387 0.0637795
vt -0.156179 0.0637795
f 81/176/29 82/177/28 52/178/28 53/179/29 

vt -0.146691 0
vt -0.1359 0
vt -0.1359 0.0637795
vt -0.146691 0.0637795
f 2/180/2 81/181/29 53/182/29 3/183/2 

v 17.5032 0 -2.42483
vt -0.689101 0.0954657
f 40/88/3 79/163/3 84/184/3

vt -0.528416 0
vn 0.425569 0 -0.904926
vt -0.517625 0
vt -0.517625 0.0637795
vt -0.528416 0.0637795
f 84/185/30 79/186/25 54/187/25 55/188/30 

v 17.7643 0 -2.34155
vt -0.638316 0
vn 0.176856 0 -0.984237
vt -0.627525 0
vt -0.627525 0.0637795
vt -0.638316 0.0637795
f 85/189/31 84/190/30 55/191/30 56/192/31 

vt -0.699382 0.0921871
f 40/88/3 84/184/3 85/193/3

v 18.0381 0 -2.3287
vt -0.710162 0.0916812
f 40/88/3 85/193/3 86/194/3

vt -0.705084 0
vn -0.0839099 0 -0.996473
vt -0.694292 0
vt -0.694292 0.0637795
vt -0.705084 0.0637795
f 86/195/32 85/196/31 56/197/31 57/198/32 

v 18.3059 0 -2.38716
vt -0.724168 0
vn -0.338957 0 -0.940802
vt -0.713377 0
vt -0.713377 0.0637795
vt -0.724168 0.0637795
f 87/199/33 86/200/32 57/201/32 58/202/33 

vt -0.720705 0.0939826
f 40/88/3 86/194/3 87/203/3

v 18.5494 0 -2.51293
vt -0.730293 0.0989344
f 40/88/3 87/203/3 88/204/3

vt -0.69427 0
vn -0.570905 0 -0.821016
vt -0.683478 0
vt -0.683478 0.0637795
vt -0.69427 0.0637795
f 88/205/34 87/206/33 58/207/33 59/208/34 

v 18.7521 0 -2.69746
vt -0.617426 0
vn -0.763946 0 -0.64528
vt -0.606634 0
vt -0.606634 0.0637795
vt -0.617426 0.0637795
f 89/209/35 88/210/34 59/211/34 60/212/35 

vt -0.738273 0.106199
f 40/88/3 88/204/3 89/213/3

v 18.9002 0 -2.92815
vt -0.744101 0.115282
f 40/88/3 89/213/3 90/214/3

vt -0.498873 0
vn -0.904926 0 -0.425569
vt -0.488081 0
vt -0.488081 0.0637795
vt -0.498873 0.0637795
f 90/215/36 89/216/35 60/217/35 61/218/36 

v 18.9834 0 -3.1893
vt -0.34669 0
vn -0.980306 0 -0.197486
vt -0.335899 0
vt -0.335899 0.0637795
vt -0.34669 0.0637795
f 91/219/37 90/220/36 61/221/36 62/222/37 

vt -0.74738 0.125563
f 40/88/3 90/214/3 91/223/3

v 19 0 -3.375
vt -0.748031 0.132874
f 40/88/3 91/223/3 92/224/3

vt -0.198758 0
vn -0.999725 0 -0.0234434
vt -0.191418 0
vt -0.191418 0.0637795
vt -0.198758 0.0637795
f 92/225/38 91/226/37 62/227/37 63/228/38 

v 18.9963 0 -3.46311
vt -0.104817 0
vn -0.991761 0 0.128103
vt -0.101345 0
vt -0.101345 0.0637795
vt -0.104817 0.0637795
f 93/229/39 92/230/38 63/231/38 64/232/39 

vt -0.747886 0.136343
f 93/233/3 5/6/3 92/224/3

v 18.9378 0 -3.7309
vt -0.745584 0.146886
f 94/234/3 5/6/3 93/233/3

v 18.8121 0 -3.97445
vt -0.740633 0.156474
f 95/235/3 5/6/3 94/234/3

v 18.6275 0 -4.17714
vt -0.733368 0.164454
f 96/236/3 5/6/3 95/235/3

v 18.3968 0 -4.32517
vt -0.724285 0.170282
f 97/237/3 5/6/3 96/236/3

v 18.1357 0 -4.40845
vt -0.714004 0.173561
f 98/238/3 5/6/3 97/237/3

v 17.8619 0 -4.4213
vt -0.703224 0.174067
f 99/239/3 5/6/3 98/238/3

v 17.5941 0 -4.36284
vt -0.692681 0.171765
f 100/240/3 5/6/3 99/239/3

v 17.3506 0 -4.23707
vt -0.683093 0.166814
f 101/241/3 5/6/3 100/240/3

v 17.1479 0 -4.05254
vt -0.675112 0.159549
f 102/242/3 5/6/3 101/241/3

f 2/7/3 5/6/3 102/242/3

v 16.9998 0 -3.82185
vt -0.669285 0.150466
f 2/7/3 102/242/3 103/243/3

vt 0.488081 0
vn 0.904926 0 0.425569
vt 0.498873 0
vn 0.763946 0 0.64528
vt 0.498873 0.0637795
vt 0.488081 0.0637795
f 103/244/40 102/245/41 73/246/41 74/247/40 

vt 0.606634 0
vt 0.617426 0
vn 0.570905 0 0.821016
vt 0.617426 0.0637795
vt 0.606634 0.0637795
f 102/248/41 101/249/42 72/250/42 73/251/41 

vt 0.683478 0
vt 0.69427 0
vn 0.338957 0 0.940802
vt 0.69427 0.0637795
vt 0.683478 0.0637795
f 101/252/42 100/253/43 71/254/43 72/255/42 

vt 0.713377 0
vt 0.724168 0
vn 0.0839099 0 0.996473
vt 0.724168 0.0637795
vt 0.713377 0.0637795
f 100/256/43 99/257/44 70/258/44 71/259/43 

vt 0.694292 0
vt 0.705084 0
vn -0.176856 0 0.984237
vt 0.705084 0.0637795
vt 0.694292 0.0637795
f 99/260/44 98/261/45 69/262/45 70/263/44 

vt 0.627525 0
vt 0.638316 0
vn -0.425569 0 0.904926
vt 0.638316 0.0637795
vt 0.627525 0.0637795
f 98/264/45 97/265/46 68/266/46 69/267/45 

vt 0.517625 0
vt 0.528416 0
vn -0.64528 0 0.763946
vt 0.528416 0.0637795
vt 0.517625 0.0637795
f 97/268/46 96/269/47 67/270/47 68/271/46 

vt 0.372082 0
vt 0.382874 0
vn -0.821016 0 0.570905
vt 0.382874 0.0637795
vt 0.372082 0.0637795
f 96/272/47 95/273/48 66/274/48 67/275/47 

vt 0.200815 0
vt 0.211606 0
vn -0.940802 0 0.338957
vt 0.211606 0.0637795
vt 0.200815 0.0637795
f 95/276/48 94/277/49 65/278/49 66/279/48 

vt 0.0154947 0
vt 0.0262862 0
vt 0.0262862 0.0637795
vt 0.0154947 0.0637795
f 94/280/49 93/281/39 64/282/39 65/283/49 

v 16.9166 0 -3.5607
vt 0.335899 0
vn 0.984237 0 0.176856
vt 0.34669 0
vt 0.34669 0.0637795
vt 0.335899 0.0637795
f 104/284/50 103/285/40 74/286/40 75/287/50 

vt -0.666006 0.140185
f 2/7/3 103/243/3 104/288/3

v 16.9037 0 -3.28689
vt -0.6655 0.129405
f 2/7/3 104/288/3 105/289/3

v 16.9078 0 -3.375
vt -0.665663 0.132874
f 105/289/3 104/288/3 106/290/3

vt 0.16393 0
vn 0.998901 0 0.0468739
vt 0.171249 0
vt 0.171249 0.0637795
v 16.9078 1.62 -3.375
vt 0.16393 0.0637795
f 106/291/51 104/292/50 75/293/50 107/294/51 

vt 0.665663 0.132874
f 75/155/15 76/156/15 107/295/15

vt 0.160458 0
vn 0.996473 0 -0.0839099
vt 0.160458 0.0637795
f 105/296/52 106/291/51 107/294/51 76/297/52 

v 16.9622 0 -3.0191
vt -0.0262862 0
vn 0.940802 0 -0.338957
vt -0.0154947 0
vt -0.0154947 0.0637795
vt -0.0262862 0.0637795
f 108/298/53 105/299/52 76/300/52 77/301/53 

vt -0.667801 0.118862
f 108/302/3 2/7/3 105/289/3

f 80/164/3 2/7/3 108/302/3

vt -0.211606 0
vt -0.200815 0
vt -0.200815 0.0637795
vt -0.211606 0.0637795
f 80/303/26 108/304/53 77/305/53 78/306/26 

f 40/88/3 92/224/3 5/6/3

vn 1 0 -0
vt 0.265748 0
vt 0.265748 0.0637795
f 40/19/54 5/307/54 30/308/54 39/86/54 

vn 0 0 -1
vt -0.787402 0.0637795
f 5/88/55 11/19/55 31/86/55 30/309/55 

vt -0.265748 0
vn -1 0 -0
vt -0.265748 0.0637795
f 11/310/56 17/19/56 33/86/56 31/311/56 

